Coordinates
version=1
nRows=14
nColumns=24
inDegrees=yes

Units are S.I. units (second, meters, Newtons, ...)
Angles are in degrees.

endheader
time	pelvis_tilt	pelvis_list	pelvis_rotation	pelvis_tx	pelvis_ty	pelvis_tz	hip_flexion_r	hip_adduction_r	hip_rotation_r	knee_angle_r	ankle_angle_r	subtalar_angle_r	mtp_angle_r	hip_flexion_l	hip_adduction_l	hip_rotation_l	knee_angle_l	ankle_angle_l	subtalar_angle_l	mtp_angle_l	lumbar_extension	lumbar_bending	lumbar_rotation
      4.11000000	     -9.64471875	      3.56970067	    -11.79377626	     -2.10440322	     -0.02800729	      0.47045727	     -3.66375412	     -2.08042022	      3.90483036	    -15.40394692	      4.91054348	      0.91028355	      5.01673248	     28.86876888	     -1.91156650	     -0.84819070	     -6.01693943	     -7.68964533	      1.92525865	     14.35039087	      5.21239082	     -2.71477300	      8.67851126
      4.11500000	     -9.67124108	      3.69588782	    -11.75899247	     -2.09783192	     -0.02864408	      0.46959754	     -3.76241343	     -2.38417923	      3.79231034	    -15.91337320	      4.69488068	      1.23040511	      5.46994163	     28.99155005	     -1.67526665	     -1.06977700	     -6.81075323	     -8.11659509	      1.91519925	     14.34037836	      5.41653013	     -2.84582283	      8.65919238
      4.12000000	     -9.68395648	      3.78454600	    -11.70968453	     -2.09130489	     -0.02921895	      0.46867973	     -3.84928890	     -2.64123154	      3.71894466	    -16.48714300	      4.36713774	      1.44176925	      5.80311695	     29.10483596	     -1.46536227	     -1.35338544	     -7.62051254	     -8.66820524	      1.86939757	     14.30040234	      5.58363178	     -2.93612062	      8.58992516
      4.12500000	     -9.71185497	      3.90472679	    -11.64170842	     -2.08477752	     -0.02977448	      0.46769919	     -3.87051267	     -2.92852955	      3.64589298	    -17.14191483	      4.01033652	      1.64524429	      6.18586331	     29.23615545	     -1.22129215	     -1.68678216	     -8.41120530	     -9.34488371	      1.79511645	     14.22065598	      5.76691055	     -3.05848914	      8.52794222
      4.13000000	     -9.76286169	      4.02436370	    -11.57667205	     -2.07827348	     -0.03025696	      0.46668407	     -3.83396405	     -3.21774933	      3.54209137	    -17.82558880	      3.58016712	      1.89799220	      6.69305774	     29.38872384	     -0.98570149	     -2.03167487	     -9.18207769	    -10.15961702	      1.62910005	     14.05745560	      5.97020336	     -3.17310743	      8.48072117
      4.13500000	     -9.78586861	      4.20105757	    -11.44517303	     -2.07169560	     -0.03063603	      0.46566477	     -3.80890467	     -3.54994627	      3.45782337	    -18.56028558	      3.05148947	      1.98678836	      6.94841380	     29.51064467	     -0.67009645	     -2.39963698	     -9.91778923	    -10.95505320	      1.59237141	     13.85406401	      6.15786887	     -3.37087116	      8.39810660
      4.14000000	     -9.83296366	      4.40333399	    -11.33491792	     -2.06514725	     -0.03094525	      0.46462703	     -3.69289111	     -3.91315864	      3.35353286	    -19.37307658	      2.47335251	      2.15100234	      7.33593158	     29.65505100	     -0.34038146	     -2.74237759	    -10.63872566	    -11.75875172	      1.43316222	     13.50822550	      6.36981284	     -3.58506856	      8.36455744
      4.14500000	     -9.89830922	      4.59082693	    -11.23748223	     -2.05872883	     -0.03120790	      0.46350137	     -3.47381492	     -4.26977937	      3.22251579	    -20.29481476	      1.83038214	      2.37112450	      8.00321377	     29.81655693	     -0.01427234	     -2.87393607	    -11.37217918	    -12.48865564	      1.05085086	     12.86932126	      6.57104877	     -3.77104765	      8.34298560
      4.15000000	     -9.93869973	      4.80580551	    -11.09610988	     -2.05222093	     -0.03134919	      0.46238867	     -3.26604963	     -4.64517799	      3.08938050	    -21.24376203	      1.03506899	      2.46259528	      8.55899895	     29.94385118	      0.36608304	     -2.96400337	    -12.10092946	    -13.03693917	      0.73822364	     12.14025527	      6.75815539	     -4.00289338	      8.30492085
      4.15500000	     -9.97443464	      5.02314259	    -10.95592657	     -2.04570796	     -0.03141129	      0.46128140	     -3.01198286	     -5.02221488	      2.95003029	    -22.26241935	      0.12513671	      2.53045259	      9.14730400	     30.05891296	      0.76101134	     -2.97329751	    -12.84815602	    -13.37342196	      0.38820770	     11.25972758	      6.93732927	     -4.23763742	      8.28156013
      4.16000000	    -10.00155798	      5.26478361	    -10.80769206	     -2.03922541	     -0.03143494	      0.46020006	     -2.71160266	     -5.41390436	      2.84640516	    -23.36190484	     -0.85911210	      2.51866025	      9.70895399	     30.17170788	      1.19417393	     -2.91797083	    -13.62571125	    -13.52697529	     -0.00226945	     10.36197794	      7.09947727	     -4.50983701	      8.28745093
      4.16500000	    -10.02818318	      5.44374073	    -10.68008720	     -2.03272603	     -0.03138603	      0.45906562	     -2.36618184	     -5.75203086	      2.69606607	    -24.50476108	     -2.04316506	      2.49178625	     10.45769942	     30.25488761	      1.58409754	     -2.75637644	    -14.42670481	    -13.38923548	     -0.44347669	      9.25972017	      7.24906718	     -4.69665608	      8.29976252
      4.17000000	    -10.03993923	      5.63953172	    -10.55298147	     -2.02625855	     -0.03128696	      0.45799524	     -1.98500660	     -6.09240697	      2.60118665	    -25.70855318	     -3.35257625	      2.33386976	     11.19140348	     30.31339264	      1.99653483	     -2.58747370	    -15.23017688	    -13.09788958	     -0.84294524	      8.25849451	      7.37592052	     -4.91391098	      8.33529227
      4.17500000	    -10.04565620	      5.81794196	    -10.43129952	     -2.01982819	     -0.03114076	      0.45694007	     -1.55894314	     -6.40763087	      2.52072823	    -26.96446224	     -4.81782380	      2.08475427	     11.98465416	     30.34071067	      2.40071514	     -2.38107733	    -16.01940814	    -12.66362078	     -1.21340268	      7.33475077	      7.48297967	     -5.11226927	      8.38013843
